# xmcd
#
# Track frame offsets: 
#        150
#        18315
#        35143
#        52266
#        69757
#        89176
#        108554
#        122653
#        149593
#        164897
#        185575
#
# Disc length: 2681 seconds
#
# Revision: 2
# Processed by: cddbd v1.5.2PL0 Copyright (c) Steve Scherf et al.
# Submitted via: ExactAudioCopy v1.0b3
#
DISCID=ad0a770b
DTITLE=Bill Sheffield - 1 Cent Candy
DYEAR=2001
DGENRE=Contemporary Blues
TTITLE0=Hey Romeo
TTITLE1=Ernestine
TTITLE2=Sweet Lorraine
TTITLE3=Chameleon Woman
TTITLE4=Don't Come Cryin' To Me
TTITLE5=Ramblin' On My Mind
TTITLE6=Down On Me
TTITLE7=Kokomo
TTITLE8=Road To Nowhere
TTITLE9=Drinking Gourd
TTITLE10=All As One
EXTD=
EXTT0=
EXTT1=
EXTT2=
EXTT3=
EXTT4=
EXTT5=
EXTT6=
EXTT7=
EXTT8=
EXTT9=
EXTT10=
PLAYORDER=
